<svg width="770" height="240" viewBox="0 0 770 240" fill="none" xmlns="http://www.w3.org/2000/svg">
<path fill-rule="evenodd" clip-rule="evenodd" d="M249.995 12.3005C251.936 7.8543 249.905 2.67659 245.459 0.73578C241.012 -1.20503 235.835 0.826006 233.894 5.27223L190.211 105.346C184.312 117.376 177.704 124.748 171.159 129.314C164.64 133.862 157.66 135.991 150.43 136.754C154.658 125.645 156.575 113.193 155.772 101.851C154.609 85.4223 147.133 67.5257 128.099 63.2711C117.894 60.9899 108.219 65.0668 100.066 70.8509C93.2792 75.6661 86.6022 82.3187 80.1687 89.7881L85.9198 76.613C87.8606 72.1668 85.8295 66.9891 81.3833 65.0483C76.9371 63.1075 71.7594 65.1385 69.8186 69.5847L0.800233 227.699C-1.14058 232.146 0.890459 237.323 5.33668 239.264C9.7829 241.205 14.9606 239.174 16.9014 234.728L46.5356 166.838C51.0085 160.49 55.5404 153.788 60.122 147.013L60.1223 147.013C69.7787 132.733 79.6559 118.126 89.6656 105.816C96.9973 96.8002 103.907 89.6669 110.232 85.1793C116.657 80.6204 121.139 79.717 124.267 80.4163C131.91 82.1248 137.296 89.6395 138.248 103.092C139.029 114.125 136.409 126.604 131.43 136.332C129.173 136.079 126.918 135.784 124.666 135.479C124.039 135.394 123.404 135.306 122.762 135.218L122.75 135.216L122.75 135.216C115.848 134.265 108.156 133.205 101.826 134.035C85.4795 136.179 73.5457 143.901 68.4282 154.656C63.1666 165.715 66.0972 178.384 76.468 185.926C82.8374 190.559 89.7325 192.497 96.7925 191.719C103.589 190.97 109.682 187.802 114.95 183.83C124.386 176.714 133.057 165.534 140.665 154.625C143.718 154.712 146.85 154.669 150.017 154.429C158.234 154.429 165.332 150.92 172.286 146.411L164.876 163.387C162.935 167.833 164.966 173.011 169.412 174.952C173.858 176.893 179.036 174.861 180.977 170.415L181.04 170.27C181.309 170 181.563 169.708 181.8 169.396C186.959 162.616 192.906 153.545 199.144 144.031L199.148 144.024C199.831 142.982 200.518 141.934 201.208 140.883C208.301 130.079 215.835 118.744 223.534 108.663C231.302 98.4914 238.837 90.1386 245.801 84.9679C252.924 79.6788 257.57 79.0435 260.693 80.1351C264.201 81.3617 265.611 82.7658 266.243 83.7211C266.886 84.6911 267.379 86.1815 267.258 88.7553C266.99 94.4773 263.947 102.187 259.403 111.878C258.622 113.546 257.795 115.272 256.95 117.037L256.945 117.047C253.276 124.71 249.251 133.115 246.973 140.698C244.253 149.756 242.736 161.834 251.928 170.477C259.916 177.988 269.667 178.633 278.513 175.742C285.737 173.381 292.74 166.605 299.059 160.491C300.051 159.53 301.027 158.586 301.984 157.678C305.828 154.03 309.256 150.162 312.334 146.188C312.343 146.261 312.351 146.334 312.36 146.407L312.375 146.533C313.73 157.648 318.851 169.826 331.429 174.506C345.411 179.709 357.922 175 367.23 166.429C374.21 160 379.741 151.189 383.765 141.795C395.213 141.576 404.693 137.464 412.177 133.316C412.041 141.506 413.567 149.407 417.248 156.194C423.47 167.664 435.036 174.437 450.577 174.437C467.485 174.437 481.009 163.532 493.734 153.272L493.736 153.27C495.52 151.832 497.288 150.406 499.047 149.025C501.078 147.088 503.042 145.165 504.949 143.262L496.164 163.387C494.223 167.833 496.254 173.011 500.7 174.952C505.147 176.893 510.324 174.861 512.265 170.415L527.716 135.018C538.011 120.149 548.77 105.892 559.152 95.483C564.968 89.6518 570.33 85.3744 575.099 82.8326C579.865 80.2918 583.287 79.8701 585.757 80.4222C593.4 82.1308 598.786 89.6455 599.738 103.098C600.52 114.151 597.89 126.655 592.893 136.391C590.555 136.128 588.213 135.815 585.865 135.489C585.271 135.406 584.668 135.321 584.059 135.235C577.292 134.281 569.679 133.207 563.315 134.041C547.025 136.177 535.485 143.622 530.653 154.443C525.821 165.261 528.79 177.249 537.043 185.167C542.924 190.809 549.837 193.426 557.216 192.782C564.141 192.178 570.405 188.792 575.722 184.717C585.346 177.342 594.44 165.671 602.14 154.65C604.877 154.709 607.677 154.654 610.506 154.434C620.5 153.655 630.293 149.607 640.064 141.967C641.43 140.899 642.692 139.869 643.866 138.861C644.366 145.047 645.923 150.949 648.765 156.188C654.987 167.658 666.552 174.43 682.093 174.43C690.304 174.43 698.796 171.686 706.769 167.795C714.834 163.86 722.952 158.462 730.575 152.478C745.774 140.548 759.79 125.668 768.319 113.627C771.123 109.668 770.187 104.185 766.229 101.381C762.27 98.5769 756.787 99.5129 753.983 103.472C746.513 114.018 733.705 127.687 719.728 138.658C712.763 144.125 705.705 148.766 699.064 152.007C692.331 155.293 686.588 156.862 682.093 156.862C672.223 156.862 667.005 152.968 664.207 147.811C661.842 143.451 660.761 137.316 661.461 129.982C662.09 130.298 662.732 130.598 663.387 130.878C669.71 133.579 677.908 134.856 687.637 133.21C695.045 131.956 701.47 127.807 706.377 122.817C711.319 117.792 715.209 111.439 717.414 104.813C719.596 98.2557 720.349 90.7105 717.965 83.6953C715.45 76.2936 709.766 70.4976 701.227 67.603C686.787 62.7087 673.645 71.3412 664.934 81.0295C659.807 86.7313 655.32 93.6873 651.819 101.046C651.524 101.473 651.263 101.933 651.041 102.423C644.781 116.253 637.744 124.456 630.852 129.373C624.858 133.65 618.518 135.767 611.971 136.625C616.164 125.55 618.062 113.153 617.262 101.857C616.099 85.4282 608.623 67.5317 589.589 63.2771C581.58 61.4869 573.756 63.6398 566.835 67.3294C562.117 69.8444 557.469 73.252 552.95 77.2102L581.283 12.3005C583.224 7.8543 581.193 2.67659 576.747 0.73578C572.301 -1.20503 567.123 0.826006 565.182 5.27223L522.075 104.027C514.554 114.495 501.948 127.882 488.211 138.665C481.247 144.131 474.188 148.773 467.548 152.013C460.814 155.299 455.072 156.868 450.577 156.868C440.706 156.868 435.488 152.974 432.691 147.817C430.326 143.457 429.245 137.322 429.945 129.988C430.573 130.305 431.216 130.604 431.871 130.884C438.193 133.585 446.391 134.863 456.121 133.216C463.529 131.962 469.953 127.813 474.861 122.823C479.803 117.798 483.693 111.446 485.897 104.82C488.079 98.2619 488.832 90.7167 486.449 83.7016C483.934 76.2998 478.25 70.5038 469.71 67.6093C455.271 62.7149 442.129 71.3475 433.418 81.0358C425.404 89.949 418.952 101.927 415.386 113.716C414.177 114.654 412.716 115.684 411.003 116.721C406.027 119.733 398.903 122.823 389.549 123.866C391.704 114.307 392.48 104.559 391.458 95.9644C390.151 84.9852 385.323 72.6006 372.825 68.7779C356.707 63.8475 343.977 71.1683 335.262 80.7347C328.466 88.1948 323.372 97.6888 319.71 105.969C319.557 106.23 319.415 106.501 319.287 106.782C313.92 118.532 302.345 135.815 289.891 147.633C283.618 153.586 277.803 157.491 273.056 159.043C268.797 160.434 266.213 159.794 263.962 157.678C262.644 156.438 261.402 153.732 263.799 145.751C265.645 139.607 268.886 132.821 272.5 125.255C273.418 123.334 274.36 121.361 275.31 119.337C279.629 110.126 284.35 99.3267 284.807 89.5783C285.049 84.4168 284.145 78.9318 280.888 74.017C277.622 69.0874 272.629 65.6973 266.491 63.5512C255.102 59.5695 244.14 64.319 235.327 70.8628C228.777 75.7267 222.356 82.3313 216.233 89.6466L249.995 12.3005ZM374.013 98.0403C374.867 105.219 374.017 114.278 371.576 123.391C361.339 121.753 354.357 117.933 350.172 113.726C344.722 108.249 343.534 101.809 345.576 96.1674C345.654 95.9517 345.723 95.7349 345.784 95.5175C346.58 94.4834 347.402 93.496 348.249 92.5661C354.311 85.912 360.405 83.3507 367.687 85.5778C369.857 86.2418 372.951 89.1199 374.013 98.0403ZM337.717 126.117C335.872 124.262 334.254 122.281 332.874 120.204C330.108 127.995 328.906 136.957 329.814 144.408C330.822 152.676 333.963 156.704 337.555 158.041C343.808 160.367 349.552 158.826 355.328 153.506C358.95 150.17 362.304 145.528 365.161 140.061C353.639 137.633 344.336 132.77 337.717 126.117ZM104.11 151.454C107.806 150.97 112.884 151.612 120.415 152.632C114.971 159.816 109.62 165.845 104.372 169.803C100.576 172.666 97.432 173.974 94.8691 174.256C92.5697 174.51 89.9834 174.033 86.8014 171.718C83.3685 169.222 82.6129 165.734 84.2923 162.204C86.116 158.372 91.7504 153.075 104.11 151.454ZM581.867 152.67C574.372 151.63 569.327 150.971 565.6 151.46C553.185 153.088 548.254 158.114 546.694 161.607C545.133 165.101 545.851 169.271 549.206 172.49C551.847 175.024 553.901 175.436 555.688 175.28C557.93 175.085 561.032 173.841 565.036 170.773C570.522 166.569 576.218 160.116 581.867 152.67ZM434.705 112.078C434.689 112.045 434.674 112.012 434.658 111.979C437.638 104.841 441.788 98.0025 446.482 92.7821C453.849 84.5886 460.001 82.8684 464.07 84.2477C467.721 85.4851 469.152 87.4021 469.814 89.3533C470.609 91.6912 470.603 95.1391 469.227 99.2736C467.875 103.34 465.409 107.379 462.335 110.504C459.228 113.664 455.978 115.422 453.189 115.894C446.605 117.008 441.837 116.037 438.774 114.729C436.166 113.614 435.051 112.403 434.759 112.085C434.668 111.987 434.657 111.974 434.705 112.078ZM666.175 111.973C666.19 112.006 666.206 112.038 666.221 112.071C666.196 112.018 666.187 111.996 666.197 112C666.206 112.004 666.231 112.031 666.275 112.079C666.567 112.396 667.683 113.608 670.29 114.722C673.353 116.031 678.122 117.002 684.706 115.888C687.494 115.416 690.744 113.657 693.852 110.498C696.925 107.373 699.391 103.334 700.744 99.2673C702.119 95.1329 702.125 91.685 701.331 89.3471C700.668 87.3958 699.237 85.4789 695.587 84.2415C691.517 82.8621 685.365 84.5823 677.998 92.7759C673.304 97.9962 669.154 104.834 666.175 111.973Z" fill="#201D1B"/>
</svg>
